<svg xmlns="http://www.w3.org/2000/svg" width="34.567" height="25.293" viewBox="0 0 9.146 6.692"><path d="M79.423 86.037v1.228h7.842v-1.228z" style="fill:#333;stroke:#fff;stroke-width:.0957311;stroke-linecap:butt;stroke-linejoin:bevel;stroke-dasharray:none;stroke-opacity:1" transform="translate(-78.77 -85.96)"/><path d="M81.014 86.222a.442.137 0 0 1-.622.003.442.137 0 0 1-.018-.192.442.137 0 0 1 .622-.008.442.137 0 0 1 .032.192M82.337 86.222a.442.137 0 0 1-.622.003.442.137 0 0 1-.018-.192.442.137 0 0 1 .622-.008.442.137 0 0 1 .032.192M83.66 86.213a.442.137 0 0 1-.622.003.442.137 0 0 1-.018-.192.442.137 0 0 1 .622-.007.442.137 0 0 1 .032.191M84.983 86.213a.442.137 0 0 1-.622.003.442.137 0 0 1-.018-.192.442.137 0 0 1 .622-.007.442.137 0 0 1 .032.191M86.306 86.213a.442.137 0 0 1-.622.003.442.137 0 0 1-.018-.192.442.137 0 0 1 .621-.007.442.137 0 0 1 .033.191" style="fill:#333;stroke:#fff;stroke-width:.0415373;stroke-linecap:butt;stroke-linejoin:bevel;stroke-dasharray:none;stroke-opacity:1" transform="translate(-78.77 -85.96)"/><path d="M79.423 88.731v1.227h7.842v-1.227z" style="fill:#333;stroke:#fff;stroke-width:.0957311;stroke-linecap:butt;stroke-linejoin:bevel;stroke-dasharray:none;stroke-opacity:1" transform="translate(-78.77 -85.96)"/><path d="M81.014 88.915a.442.137 0 0 1-.622.003.442.137 0 0 1-.018-.191.442.137 0 0 1 .622-.008.442.137 0 0 1 .032.192M82.337 88.915a.442.137 0 0 1-.622.003.442.137 0 0 1-.018-.191.442.137 0 0 1 .622-.008.442.137 0 0 1 .032.192M83.66 88.907a.442.137 0 0 1-.622.003.442.137 0 0 1-.018-.192.442.137 0 0 1 .622-.008.442.137 0 0 1 .032.192M84.983 88.907a.442.137 0 0 1-.622.003.442.137 0 0 1-.018-.192.442.137 0 0 1 .622-.008.442.137 0 0 1 .032.192M86.306 88.907a.442.137 0 0 1-.622.003.442.137 0 0 1-.018-.192.442.137 0 0 1 .621-.008.442.137 0 0 1 .033.192" style="fill:#333;stroke:#fff;stroke-width:.0415373;stroke-linecap:butt;stroke-linejoin:bevel;stroke-dasharray:none;stroke-opacity:1" transform="translate(-78.77 -85.96)"/><path d="M79.375 86.519h-.53v2.91h.53" style="fill:none;stroke:#fff;stroke-width:.15;stroke-linecap:butt;stroke-linejoin:round;stroke-dasharray:none;stroke-opacity:1" transform="translate(-78.77 -85.96)"/><path d="M79.423 91.377v1.227h7.842v-1.227z" style="fill:#333;stroke:#fff;stroke-width:.0957311;stroke-linecap:butt;stroke-linejoin:bevel;stroke-dasharray:none;stroke-opacity:1" transform="translate(-78.77 -85.96)"/><path d="M81.014 91.561a.442.137 0 0 1-.622.003.442.137 0 0 1-.018-.192.442.137 0 0 1 .622-.007.442.137 0 0 1 .032.191M82.337 91.561a.442.137 0 0 1-.622.003.442.137 0 0 1-.018-.192.442.137 0 0 1 .622-.007.442.137 0 0 1 .032.191M83.66 91.553a.442.137 0 0 1-.622.003.442.137 0 0 1-.018-.192.442.137 0 0 1 .622-.008.442.137 0 0 1 .032.192M84.983 91.553a.442.137 0 0 1-.622.003.442.137 0 0 1-.018-.192.442.137 0 0 1 .622-.008.442.137 0 0 1 .032.192M86.306 91.553a.442.137 0 0 1-.622.003.442.137 0 0 1-.018-.192.442.137 0 0 1 .621-.008.442.137 0 0 1 .033.192" style="fill:#333;stroke:#fff;stroke-width:.0415373;stroke-linecap:butt;stroke-linejoin:bevel;stroke-dasharray:none;stroke-opacity:1" transform="translate(-78.77 -85.96)"/><path d="M87.313 89.165h.529v2.91h-.53" style="fill:none;stroke:#fff;stroke-width:.15;stroke-linecap:butt;stroke-linejoin:round;stroke-dasharray:none;stroke-opacity:1" transform="translate(-78.77 -85.96)"/></svg>