<svg xmlns="http://www.w3.org/2000/svg" width="4.152" height="9.062" viewBox="0 0 1.099 2.398"><path d="m80.169 83.344.264 1.042h.53l.264-1.042z" style="fill:#333;fill-opacity:1;stroke:#fff;stroke-width:.0327495;stroke-linecap:butt;stroke-linejoin:round;stroke-dasharray:none;stroke-opacity:1" transform="translate(-80.145 -82.004)"/><path d="M81.056 83.453a.517.156 0 0 1-.727.003.517.156 0 0 1-.021-.219.517.156 0 0 1 .726-.008.517.156 0 0 1 .038.218" style="fill:#333;stroke:#fff;stroke-width:.0479696;stroke-linecap:butt;stroke-linejoin:bevel;stroke-dasharray:none;stroke-opacity:1" transform="translate(-80.145 -82.004)"/><path d="M80.698 83.344V82.02M80.698 82.815l.264-.265M80.698 82.55l-.265-.265M80.698 82.285l.264-.264M80.698 83.08l-.265-.265" style="fill:#333;fill-opacity:1;stroke:green;stroke-width:.0329999;stroke-linecap:round;stroke-linejoin:round;stroke-dasharray:none;stroke-opacity:1" transform="translate(-80.145 -82.004)"/></svg>