<svg xmlns="http://www.w3.org/2000/svg" width="210mm" height="297mm" viewBox="0 0 210 297"><path d="M61.15 65h50.904a.53.53 45 0 1 .53.53v18.94a.53.53 135 0 1-.53.53H61.151a.53.53 45 0 1-.53-.53V65.53a.53.53 135 0 1 .53-.53Z" style="fill:#2b1100;stroke-width:.264583"/><path d="M76.21 65v.735a.265.265 45 0 0 .265.265h2.935a.265.265 135 0 0 .264-.265V65H76.21" style="fill:#a05a2c;stroke-width:.264583"/><path d="M75.055 63.75h6.062v1.669h-6.062z" style="fill:#241c1c;stroke-width:.279076"/><path d="M84.87 65v.735a.265.265 45 0 0 .265.265h2.935a.265.265 135 0 0 .265-.265V65H84.87" style="fill:#a05a2c;stroke-width:.264583"/><path d="M83.668 63.75h6.062v1.669h-6.062z" style="fill:#241c1c;stroke-width:.279076"/><path d="M93.53 65v.735a.265.265 45 0 0 .265.265h2.935a.265.265 135 0 0 .265-.265V65H93.53" style="fill:#a05a2c;stroke-width:.264583"/><path d="M92.376 63.75h6.062v1.669h-6.062z" style="fill:#241c1c;stroke-width:.279076"/><path d="M102.191 65v.735a.265.265 45 0 0 .265.265h2.935a.265.265 135 0 0 .264-.265V65h-3.464" style="fill:#a05a2c;stroke-width:.264583"/><path d="M100.988 63.75h6.062v1.669h-6.062z" style="fill:#241c1c;stroke-width:.279076"/><path d="M62.354 67.53v14.94a.53.53 45 0 0 .529.53h47.44a.53.53 135 0 0 .528-.53V67.53a.53.53 45 0 0-.529-.53H62.883a.53.53 135 0 0-.53.53z" style="fill:#e9c6af;stroke-width:.264583"/><path d="m86.603 83 24.248-14v14Z" style="fill:#ff8080;stroke-width:.264583"/><path d="m109.985 83.5-6.438-3.701M110.893 79.038l-5.385-3.073M110.913 74.003 105.655 71M101.325 83.5 98.727 82M110.854 77.985l-9.353 5.481M110.888 71.022 89.201 83.5" style="fill:#000;stroke:#fff;stroke-width:.264583;stroke-opacity:1"/><circle cx="98.165" cy="74.696" r="7.422" style="fill:#e9c6af;stroke-width:.323939"/><path d="m89.17 81.451 3.495 2.049" style="fill:#000;stroke:#fff;stroke-width:.264583;stroke-opacity:1"/><circle cx="98.165" cy="74.696" r="6.928" style="fill:#f95;stroke-width:.302381"/><circle cx="98.165" cy="74.696" r="6.366" style="fill:#ffb380;stroke-width:.277839"/><circle cx="100.639" cy="70.852" r=".965" style="fill:#d35f5f;stroke-width:.264583"/><circle cx="96.569" cy="78.067" r=".965" style="fill:#d35f5f;stroke-width:.264583"/><circle cx="100.074" cy="78.803" r=".965" style="fill:#d35f5f;stroke-width:.264583"/><circle cx="95.604" cy="71.603" r=".965" style="fill:#d35f5f;stroke-width:.264583"/><circle cx="93.887" cy="74.271" r=".965" style="fill:#d35f5f;stroke-width:.264583"/><circle cx="102.569" cy="74.271" r=".965" style="fill:#d35f5f;stroke-width:.264583"/><circle cx="98.377" cy="73.3" r=".732" style="fill:#d35f5f;stroke-width:.20064"/><circle cx="97.081" cy="75.801" r=".564" style="fill:#d35f5f;stroke-width:.154739"/><circle cx="100.297" cy="76" r=".564" style="fill:#d35f5f;stroke-width:.154739"/><path d="M110.851 69v11l.866-.5z" style="fill:#2b1100;stroke:none;stroke-width:.264583;stroke-opacity:1"/><path d="m86.603 83 6.062-3.5-4.33.5zM108.253 70.5l-2.598 1.5-.866-2.5Z" style="fill:#e9c6af;stroke:none;stroke-width:.264583;stroke-opacity:1"/><path d="M67.55 65v.735a.265.265 45 0 0 .265.265h2.934a.265.265 135 0 0 .265-.265V65H67.55" style="fill:#a05a2c;stroke-width:.264583"/><path d="M66.347 63.75h6.062v1.669h-6.062z" style="fill:#241c1c;stroke-width:.279076"/><path d="M110.851 83H88.335v1h22.516z" style="fill:#2b1100;stroke:none;stroke-width:.264583;stroke-opacity:1"/></svg>